HIERARCHY
ROOT Hips
{
	OFFSET -14.64140 90.27770 -84.91600
	CHANNELS 6 Xposition Yposition Zposition Zrotation Xrotation Yrotation
	JOINT Spine
	{
		OFFSET 0.00000 13.20850 -1.60436
		CHANNELS 3 Zrotation Xrotation Yrotation
		JOINT Spine1
		{
			OFFSET 0.00000 8.61716 0.00000
			CHANNELS 3 Zrotation Xrotation Yrotation
			JOINT Spine2
			{
				OFFSET 0.00000 8.61717 0.00000
				CHANNELS 3 Zrotation Xrotation Yrotation
				JOINT Spine3
				{
					OFFSET 0.00000 8.61717 0.00000
					CHANNELS 3 Zrotation Xrotation Yrotation
					JOINT Neck
					{
						OFFSET 0.00000 11.07920 1.10792
						CHANNELS 3 Zrotation Xrotation Yrotation
						JOINT Neck1
						{
							OFFSET 0.00000 7.08032 0.00000
							CHANNELS 3 Zrotation Xrotation Yrotation
							JOINT Head
							{
								OFFSET 0.00000 7.08031 0.00000
								CHANNELS 3 Zrotation Xrotation Yrotation
								End site
								{
									OFFSET 0.00000 0.00000 0.00000
								}
							}
						}
					}
					JOINT RightShoulder
					{
						OFFSET -0.01000 7.91373 5.19711
						CHANNELS 3 Zrotation Xrotation Yrotation
						JOINT RightArm
						{
							OFFSET -18.41580 0.00000 0.00000
							CHANNELS 3 Zrotation Xrotation Yrotation
							JOINT RightForeArm
							{
								OFFSET -29.11090 0.00000 0.00000
								CHANNELS 3 Zrotation Xrotation Yrotation
								JOINT RightHand
								{
									OFFSET -24.65040 0.00000 0.00000
									CHANNELS 3 Zrotation Xrotation Yrotation
									JOINT RightHandThumb1
									{
										OFFSET -5.35114 -0.85590 3.97906
										CHANNELS 3 Zrotation Xrotation Yrotation
										JOINT RightHandThumb2
										{
											OFFSET -4.52789 0.00000 0.00000
											CHANNELS 3 Zrotation Xrotation Yrotation
											JOINT RightHandThumb3
											{
												OFFSET -2.46976 0.00000 0.00000
												CHANNELS 3 Zrotation Xrotation Yrotation
												End site
												{
													OFFSET 0.00000 0.00000 0.00000
												}
											}
										}
									}
									JOINT RightHandIndex1
									{
										OFFSET -14.26970 0.00000 2.88139
										CHANNELS 3 Zrotation Xrotation Yrotation
										JOINT RightHandIndex2
										{
											OFFSET -5.48836 0.00000 0.00000
											CHANNELS 3 Zrotation Xrotation Yrotation
											JOINT RightHandIndex3
											{
												OFFSET -3.01859 0.00000 0.00000
												CHANNELS 3 Zrotation Xrotation Yrotation
												End site
												{
													OFFSET 0.00000 0.00000 0.00000
												}
											}
										}
									}
									JOINT RightHandMiddle1
									{
										OFFSET -14.26970 0.00000 -0.09147
										CHANNELS 3 Zrotation Xrotation Yrotation
										JOINT RightHandMiddle2
										{
											OFFSET -6.17441 0.00000 0.00000
											CHANNELS 3 Zrotation Xrotation Yrotation
											JOINT RightHandMiddle3
											{
												OFFSET -3.56743 0.00000 0.00000
												CHANNELS 3 Zrotation Xrotation Yrotation
												End site
												{
													OFFSET 0.00000 0.00000 0.00000
												}
											}
										}
									}
									JOINT RightHandRing1
									{
										OFFSET -12.69180 0.00000 -3.06433
										CHANNELS 3 Zrotation Xrotation Yrotation
										JOINT RightHandRing2
										{
											OFFSET -5.62556 0.00000 0.00000
											CHANNELS 3 Zrotation Xrotation Yrotation
											JOINT RightHandRing3
											{
												OFFSET -3.56744 0.00000 0.00000
												CHANNELS 3 Zrotation Xrotation Yrotation
												End site
												{
													OFFSET 0.00000 0.00000 0.00000
												}
											}
										}
									}
									JOINT RightHandPinky1
									{
										OFFSET -11.11390 0.00000 -6.03719
										CHANNELS 3 Zrotation Xrotation Yrotation
										JOINT RightHandPinky2
										{
											OFFSET -4.52789 0.00000 0.00000
											CHANNELS 3 Zrotation Xrotation Yrotation
											JOINT RightHandPinky3
											{
												OFFSET -2.46976 0.00000 0.00000
												CHANNELS 3 Zrotation Xrotation Yrotation
												End site
												{
													OFFSET 0.00000 0.00000 0.00000
												}
											}
										}
									}
								}
							}
						}
					}
					JOINT LeftShoulder
					{
						OFFSET 0.01000 7.91373 5.19711
						CHANNELS 3 Zrotation Xrotation Yrotation
						JOINT LeftArm
						{
							OFFSET 18.41580 0.00000 0.00000
							CHANNELS 3 Zrotation Xrotation Yrotation
							JOINT LeftForeArm
							{
								OFFSET 29.11090 0.00000 0.00000
								CHANNELS 3 Zrotation Xrotation Yrotation
								JOINT LeftHand
								{
									OFFSET 24.65040 0.00000 0.00000
									CHANNELS 3 Zrotation Xrotation Yrotation
									JOINT LeftHandThumb1
									{
										OFFSET 5.35114 -0.85590 3.97906
										CHANNELS 3 Zrotation Xrotation Yrotation
										JOINT LeftHandThumb2
										{
											OFFSET 4.52789 0.00000 0.00000
											CHANNELS 3 Zrotation Xrotation Yrotation
											JOINT LeftHandThumb3
											{
												OFFSET 2.46977 0.00000 0.00000
												CHANNELS 3 Zrotation Xrotation Yrotation
												End site
												{
													OFFSET 0.00000 0.00000 0.00000
												}
											}
										}
									}
									JOINT LeftHandIndex1
									{
										OFFSET 14.26970 0.00000 2.88139
										CHANNELS 3 Zrotation Xrotation Yrotation
										JOINT LeftHandIndex2
										{
											OFFSET 5.48836 0.00000 0.00000
											CHANNELS 3 Zrotation Xrotation Yrotation
											JOINT LeftHandIndex3
											{
												OFFSET 3.01859 0.00000 0.00000
												CHANNELS 3 Zrotation Xrotation Yrotation
												End site
												{
													OFFSET 0.00000 0.00000 0.00000
												}
											}
										}
									}
									JOINT LeftHandMiddle1
									{
										OFFSET 14.26970 0.00000 -0.09147
										CHANNELS 3 Zrotation Xrotation Yrotation
										JOINT LeftHandMiddle2
										{
											OFFSET 6.17440 0.00000 0.00000
											CHANNELS 3 Zrotation Xrotation Yrotation
											JOINT LeftHandMiddle3
											{
												OFFSET 3.56744 0.00000 0.00000
												CHANNELS 3 Zrotation Xrotation Yrotation
												End site
												{
													OFFSET 0.00000 0.00000 0.00000
												}
											}
										}
									}
									JOINT LeftHandRing1
									{
										OFFSET 12.69180 0.00000 -3.06433
										CHANNELS 3 Zrotation Xrotation Yrotation
										JOINT LeftHandRing2
										{
											OFFSET 5.62556 0.00000 0.00000
											CHANNELS 3 Zrotation Xrotation Yrotation
											JOINT LeftHandRing3
											{
												OFFSET 3.56744 0.00000 0.00000
												CHANNELS 3 Zrotation Xrotation Yrotation
												End site
												{
													OFFSET 0.00000 0.00000 0.00000
												}
											}
										}
									}
									JOINT LeftHandPinky1
									{
										OFFSET 11.11390 0.00000 -6.03719
										CHANNELS 3 Zrotation Xrotation Yrotation
										JOINT LeftHandPinky2
										{
											OFFSET 4.52789 0.00000 0.00000
											CHANNELS 3 Zrotation Xrotation Yrotation
											JOINT LeftHandPinky3
											{
												OFFSET 2.46976 0.00000 0.00000
												CHANNELS 3 Zrotation Xrotation Yrotation
												End site
												{
													OFFSET 0.00000 0.00000 0.00000
												}
											}
										}
									}
								}
							}
						}
					}
					JOINT pCube4
					{
						OFFSET 0.00000 10.91090 1.10792
						CHANNELS 3 Zrotation Xrotation Yrotation
						End site
						{
							OFFSET 0.00000 0.00000 0.00000
						}
					}
				}
			}
		}
	}
	JOINT RightUpLeg
	{
		OFFSET -9.98441 0.00000 0.00000
		CHANNELS 3 Zrotation Xrotation Yrotation
		JOINT RightLeg
		{
			OFFSET 0.00000 -42.11790 0.00000
			CHANNELS 3 Zrotation Xrotation Yrotation
			JOINT RightFoot
			{
				OFFSET 0.00000 -45.00020 -0.00001
				CHANNELS 3 Zrotation Xrotation Yrotation
				JOINT RightForeFoot
				{
					OFFSET 0.00000 -3.74820 0.00000
					CHANNELS 3 Zrotation Xrotation Yrotation
					JOINT RightToeBase
					{
						OFFSET 0.00000 0.06325 14.43120
						CHANNELS 3 Zrotation Xrotation Yrotation
						End site
						{
							OFFSET 0.00000 0.00000 0.00000
						}
					}
				}
			}
		}
	}
	JOINT LeftUpLeg
	{
		OFFSET 9.98441 0.00000 0.00000
		CHANNELS 3 Zrotation Xrotation Yrotation
		JOINT LeftLeg
		{
			OFFSET 0.00000 -42.11800 0.00000
			CHANNELS 3 Zrotation Xrotation Yrotation
			JOINT LeftFoot
			{
				OFFSET 0.00000 -45.00070 0.00000
				CHANNELS 3 Zrotation Xrotation Yrotation
				JOINT LeftForeFoot
				{
					OFFSET 0.00000 -3.74824 0.00000
					CHANNELS 3 Zrotation Xrotation Yrotation
					JOINT LeftToeBase
					{
						OFFSET 0.00000 0.06325 14.43110
						CHANNELS 3 Zrotation Xrotation Yrotation
						End site
						{
							OFFSET 0.00000 0.00000 0.00000
						}
					}
				}
			}
		}
	}
}
MOTION
Frames: 4
Frame Time: 0.050000
0.0024785689171208805 -0.030838672580563956 -0.032495420839974386 -0.01607091032296856 -0.03829768936307129 0.04708751019443244 -2.5377858307812997 -0.28913011593863874 -0.9113886900542567 -0.7728362324066498 3.5172104639771433 0.2789501250817366 -1.1152721685911076 -2.287675942965488 -2.2328668563413907 0.27313575919487054 0.06039441130385007 -1.0192052624780978 -0.011557366117280886 13.023991968758589 0.07540572543787902 0.23269138352894542 0.3646761335215304 -0.28799996999876787 0.16914806368881516 -14.093347833687568 0.03325815235855376 -4.167658531859163 1.6024793300518954 -14.51288005369533 69.28477637355103 9.463327791348497 9.919006297662275 50.41774829742719 4.791578365455838 94.55475856100482 25.244033963782574 -0.3086290793986205 -5.041991100064824 4.559033045888696 -0.14387288035406345 -1.5707930656754527 -0.035991108619987014 0.016152492384545136 -56.21060386187127 0.049543376021922735 -0.0018566957247681004 -56.22333278227263 -38.771679137361545 -0.0077557660526918395 0.023975716977248374 -0.03041018760545002 -0.016239952696986498 0.04649992440702664 0.028968644293448736 0.03278820464198867 0.03239161351569904 -36.725360762770556 0.04263344274265782 -0.004148662444891493 -0.0033936031464662808 -0.04482496468213165 0.03052547134599907 0.034031387432025204 -0.006562134791046271 0.030349448430452612 -19.737251836873508 -0.0014685081186118635 -0.02761847256950121 -0.016893837992294193 -0.013245458210831113 0.009541732101429726 0.013781940811095841 -0.03733459934896805 0.0029928334239856273 24.0584940984704 -0.005666309671090333 -0.0042849260025254665 28.847829023127325 0.025491232970172053 0.013379762178924766 28.881743633545486 -0.034576122600461764 -0.031068273660809408 6.963169792278601 1.648025114889216 11.895405705237076 -69.34210629625525 14.172888938202036 -15.105004846784745 -75.16086054160347 0.44150897047626986 -96.5275705016711 -17.478644574980866 -2.071890244212092 -0.0956768418611973 -0.48871073371796 0.1104784572504994 -8.0876979617913 0.022946651310866 0.006418314194590162 44.54902040378339 0.0044762641106873505 -0.019586555328339 44.578847897388655 12.456634414154886 0.013607653655932658 -0.04437877845253953 0.04127414127593342 0.01067976284088574 0.018676678293783715 0.018360590339966863 -0.005298299700947352 0.02198338521877478 11.092641337741991 -0.021119360452061833 -0.005505370525265728 0.004929710627598148 0.022198890885602927 -0.005314476808748605 -0.01552882627006336 -0.006576406608972168 -0.03265068209571384 4.772445536855781 0.02259522928351742 0.016129242907125564 -0.004965086492959223 0.03215292514233408 0.04271839176303154 0.03714960486780217 -0.011438177142768052 -0.021350220932760233 -5.576439777462758 0.01830219468728137 -0.015092519745119297 -6.728288699140346 -0.037494017790499455 0.03797117600665433 -6.7455091493144765 0.008737558415479853 0.021291054368340268 0.00024127229074915994 -0.00040572653745146384 0.013996351349703383 8.035427926196892 3.445402427358938 -19.17799057130895 -0.025503661433726493 10.375414843872033 0.05449491832864485 -5.670511477259554 -15.657382009646527 3.1734500720147003 0.03205555969481164 -0.020130418325931147 -0.00539776986286918 0.004256748925218727 4.732794488672921 -0.0024027598649895778 12.504151897377769 -8.235830783385325 6.841884322027027 -0.02209241682443434 46.38303135486854 -0.04373997800507695 -4.2987685408039304 -14.74372127916582 -3.8333815648292604 -0.03255310658517184 -0.006143431861317332 -0.0011419661431522055 -0.02269483000487039 -10.712983036830105 -0.030197893220470774 
-0.018409768755656503 -0.01923065430629786 0.009240598044816277 -0.0017425292167249995 -0.0032096635312718093 0.04086776736898437 -2.5719681388615 -0.44249965396305346 -0.9429469890091717 -0.7499123566705949 3.5639081644245456 0.3527298105418467 -1.0672556852409287 -2.304589743855327 -2.2166280337788415 0.2458084906075694 0.025932464151095253 -0.9342371116550431 -0.07623990456537953 12.921496670548137 0.0517332881886995 0.24292955724746998 0.39189621994077184 -0.20336173423125864 0.08560781948355715 -14.128704021380843 -0.005189602132535125 -4.115041174533362 1.53791610868392 -14.51824830234606 69.65415553659818 10.66143977816706 8.709721243513247 50.54864985827645 5.385983548003099 94.0553368752417 25.111575354498783 -0.3082137200418671 -4.996175751083812 4.542026085547391 -0.08500854330515406 -1.5922696276202581 0.04069941674767583 0.002356325994612514 -56.20833634086282 0.025757942411387694 0.03311704999096811 -56.20206471934767 -38.78507399801235 -0.029699140860520362 -0.037663916858584084 -0.01932705229912326 0.014687817830176446 -0.018155230847419317 -0.0367666008448008 -0.024808023243902803 -0.0043611288353182865 -36.69553532298177 -0.046715376016828104 0.014879869710187845 0.016486968177859777 -0.041910482636476384 0.015620653545926481 0.02491001382759491 0.0393103526683031 0.04599861483181502 -19.797597787680775 0.0444869814793454 -0.03996653233945235 0.006774927378099123 0.021709226773577416 0.04306998753553713 0.042572435660544514 -0.02655947338115832 0.02791215671787933 24.065655452240254 -0.005817395803460677 0.0041616779497853406 28.886230752054026 -0.019266541041507698 0.01039420626405711 28.90290585521955 -0.013782126953545415 -0.039558900915914325 6.887213477736063 1.6710470471851508 11.95675287695373 -70.04517223920217 14.268172359164964 -13.991570312015082 -78.2826123960137 0.934256938438296 -97.74256079846269 -18.080043267699015 -2.141349127313558 -0.17053350869950498 -0.5061135601911331 0.05083308244363194 -8.084314144338475 0.009334299722971154 -0.0032472856073019075 44.559421534969445 -0.04250316385812824 -0.011677647978394991 44.55948029223147 12.465558344182783 0.046835067337355665 -0.03262038817267967 -0.003436787189995631 0.02976410968417715 -0.01625941840814165 0.03834424832450279 -0.00023981652704544812 -0.01178141491778531 11.10652400403632 -0.008587307526143506 0.012999557478425381 -0.015124080484497914 0.02656619267796718 0.006624801091699161 0.03498585288485442 0.03880351332731011 0.01530341621869943 4.79534983918316 -0.00266639774882876 -0.011772661987608126 -0.033950598147155835 0.009193487330881713 0.03350208719970612 0.0027522589663231925 0.04708171365442866 -0.03363900895531203 -5.608050100736559 0.004080175210603504 -0.03561108802112713 -6.768259869249817 0.01882483301802765 -0.0364854489753727 -6.723096219735123 -0.04295233988749927 -0.001990438084150656 -0.01739726512905418 -0.0018473285555105194 0.011657331528281408 8.041290222445832 3.474363186054647 -19.25435734655869 -0.008604241257967781 10.360152991793175 0.014136242152753756 -5.626515565377691 -15.640515061123764 3.234074086176728 0.018766884755584513 0.04308998417131118 0.048187834473762396 -0.0013669662602214376 4.662668463771709 -0.02821712938470914 12.4548115864163 -8.260070138213763 6.880347219440342 -0.0423412193070549 46.365170548277554 0.015135119765679425 -4.353672548428942 -14.745638806714494 -3.804582633594653 0.00895151201042653 0.02708523569839551 -0.02348009525007065 0.0028010976189600132 -10.760451704976552 -0.04517580054430583 
0.02556194913787312 -0.0094172390913556 -0.034770118337269874 0.0311907405794705 0.0031952049978981115 -0.01811460244525961 -2.5740253291483395 -0.4669867709346274 -0.9041790046549 -0.7555614100795385 3.5510330508998407 0.3075641121725851 -1.078056345657884 -2.228607909860538 -2.2318289664260114 0.2867299159174109 0.06599569650009213 -1.0181867300981908 -0.027068814661595626 12.839174003461075 0.08724421322458821 0.2155058114263629 0.3047534709971412 -0.36033474216508965 0.12547453994510335 -14.178760643549424 0.0361838208084336 -3.9431054093777163 1.550478244860084 -14.681369696277073 69.73978190772196 10.506702714402058 7.5621578243023215 49.179714662890326 5.985605185427159 92.86075867069559 24.930216840162263 -0.2918564549702015 -4.912344487087871 4.496788703116361 -0.12906577515227594 -1.6042891581814593 0.04495152228987331 0.008183307791740597 -56.19831036626591 -0.0007372146404452373 0.03381971925762296 -56.2644696653577 -38.782363825533494 0.01384767420548118 -0.006859334209013992 -0.007341004273052463 -0.0026856672585907045 -0.028843225354375418 0.017175506501281298 -0.003163661076999621 -0.014689976169276975 -36.69763326265648 0.02395846887224405 -0.0018182011536524922 -0.001740928533550486 -0.014477603641360812 -0.0419479593423753 0.036432102930644854 -0.02108867444607209 -0.03385720347520215 -19.715769669315865 -0.021004383313325797 0.007895928055451954 0.013991615548509006 -0.03700412928543008 0.002713761313015124 0.010814952301814874 -0.02439251708323741 -0.012158960482112367 24.007543206849835 -0.014353714585901374 0.03941472361360947 28.85927816476962 -0.034044467061074064 0.006969359193047569 28.86078687861222 -0.007943444064463262 0.013043963668205252 6.793231662807254 1.5970840142799545 11.985066683896397 -70.47902392392028 13.400995770851539 -13.28045448392941 -78.97593004959049 1.0343215672129462 -98.08124000799997 -17.63493154452623 -1.8522643658374938 -0.4627929372410003 -0.45720332382681605 0.10796478916300932 -8.132767140208404 0.0321985656084513 0.027266870478656245 44.57984722997203 0.009707779649593583 0.013042705814037428 44.6043907085403 12.505315180260538 0.0044157002659217974 0.03809583635753106 -0.028808967061640427 0.019253501826338424 -0.013710860760579625 -0.024119153868363812 -0.013550422528891848 0.028209917650641944 11.136879203864053 0.04502793797199627 0.013045552021685246 -0.015574640738903116 -0.017050336820255696 -0.029864166820663233 -0.02267752215114838 0.0429867182250951 -0.04141121421406022 4.722853671919609 0.0224118972494708 -0.026729098579444534 0.048164734907731606 -0.033163845975828936 0.047911968390161354 -0.04973903416698442 0.0028266888768059594 -0.024499358622512547 -5.62800889288984 0.01083490028312971 0.042990675931140254 -6.710167605822 0.010865942736580037 0.02193726638858341 -6.756640697916466 -0.0013719985536189978 -0.034202154441256384 -0.029355376927709148 0.013093932703650633 -0.001282765103760775 8.003931546822612 3.4851073403906154 -19.199203276541027 -0.01932628014108627 10.431604694499695 0.009044016122710993 -5.664697187023553 -15.617385765773664 3.208373095857262 0.027666837964240493 0.02556298744065461 0.030563571958856818 -0.0353376166047852 4.714655734523221 0.048761689180048556 12.441930189852922 -8.213183020258157 6.914739357400306 -0.00680849508866331 46.34317144760792 -0.0318174873373762 -4.309210791175109 -14.746642084470363 -3.8435606106310507 -0.02936291324272852 0.036613129216977576 -0.01811085402534878 0.04408926897124435 -10.698053400381273 0.04692112086762177 
-0.02095089362655358 0.033415176355780465 0.04495731644478676 -0.011667140227558576 -0.03772025906857244 0.019852014523148446 -2.6297495120813554 -0.4348061261962551 -0.874411314320608 -0.7888075001411211 3.475742175242088 0.3187018683702495 -1.1046818014237714 -2.249978930991022 -2.2800284518347835 0.23766446855845968 0.010588682130577648 -0.9763185275024132 -0.011597644259911898 12.639991170966157 0.060481556440470666 0.17235249497375393 0.2707459214690669 -0.37762605294777757 0.13534533105996846 -14.31680362339931 0.005515240398217176 -3.7832727840401166 1.4435268418496643 -14.711657196570753 69.70086482463552 9.883295566176894 6.541691169965832 47.834572536938204 6.555021353723035 91.8983301812843 24.788753601188848 -0.2908002946931748 -5.0685996529777295 4.501296163454125 -0.1021622890395939 -1.5729635908352162 -0.00850130663176268 -0.015803541832438556 -56.28031918827279 -0.001594927453677723 0.0008655675159640082 -56.18564379356166 -38.72288461777349 0.023663211418441778 -0.036105323672445434 0.037208036598307105 -0.027619820868349826 0.0454236247924891 0.006919892035513896 -0.04536510844819024 -0.035229981795738746 -36.704959975583726 -0.03563335970404284 -0.03577292343039891 0.021298852703139252 0.03306736856851501 0.04666567585835659 0.01373206232266615 -0.041703397017223386 0.038561168207092725 -19.80086063707204 -0.024898244957256396 0.020834852796665238 0.016237757350070853 0.04027160601703482 -0.015222985313758102 0.021053918491890682 0.035074409305644566 0.0315756220096251 24.04918598140374 0.00622272101016754 0.03303914965131327 28.890665246215935 0.008263362811481116 -0.016702233326282893 28.860046052457253 0.04903773175409525 0.008048741440116915 6.6841366544971805 1.6106178587585644 12.073390424557878 -70.6935525481084 12.591372298713885 -12.510194399668357 -79.00251061112931 1.1189540939286098 -98.27355506109998 -17.149550605386874 -1.5733831921821142 -0.8517550548079202 -0.48276142778466413 0.07630210199974681 -8.130652401735743 -0.038202439001095115 -0.04247165841443005 44.564681194955554 -0.020793031432851612 -0.03784959347014289 44.54378643960771 12.481777184397288 -0.0287549687548595 -0.009856181690627033 -0.006067851691341852 0.014588264971893725 -0.0211093823872926 0.04002424875096504 -0.005485984391500299 -0.02953229615091722 11.069040004057092 -0.006146483886031016 3.052232385150009e-05 -0.040497751912235286 -0.016793954973395375 0.005846983939148627 0.008086240311915105 -0.04079407313825306 -0.026489943923852646 4.818529927632375 0.009439559204227593 -0.038090815922411675 0.039048610382062615 0.010621101095038922 0.04944385719456321 0.005860811139434174 0.012954636737930613 -0.023996796442999364 -5.603898280456985 -0.027704775050376895 0.030200417299143828 -6.7308763636170195 0.022233859912438533 0.0026419375138399884 -6.67755344601321 0.01689269333918197 -0.007175631661016847 -0.016098672184760087 -0.04621337008671154 0.013579284242645958 8.089225160388745 3.5396859194240458 -19.241663822210718 -0.03491313364628149 10.405015186393493 -0.014830835928871532 -5.622948594770199 -15.626677261274912 3.1618239158137835 0.0483664100843626 0.049849373732392774 0.0006768743358643533 0.011100606243956403 4.688543060944275 -0.01805575235794063 12.480995085990056 -8.191648637890431 6.864405576945296 -0.013852229604558956 46.4082334834362 -0.04067454508321412 -4.338449753434813 -14.751669504149648 -3.7882778609780066 0.04255030334973959 -0.03359834993503695 -0.013870133565260956 0.025308151448817075 -10.755971700367786 -0.017581199251457534 
